<?xml version="1.0" encoding="utf-8"?>
<svg xmlns="http://www.w3.org/2000/svg" fill="none" height="23.8299" overflow="visible" preserveAspectRatio="xMidYMid meet" style="display: block;" viewBox="0 0 99.8068 23.8299" width="99.8068">
<g clip-path="url(#clip0_0_2948)" id="Component 2" opacity="0.9">
<g id="Group 3">
<path d="M13.7988 10.49C12.6431 10.3206 11.589 10.4633 10.2928 10.4187C8.0439 10.4187 5.29528 10.4187 4.38948 10.4098C3.56958 10.3206 2.6794 11.0249 2.43734 11.8897C2.10938 13.9937 2.3983 17.0338 2.29678 19.3073C2.35144 19.7263 2.00787 19.8065 1.71895 19.7887C1.21139 19.7441 0.532046 19.9224 0.079149 19.6549C-0.116065 17.8808 0.118192 14.1988 0.0635318 12.7812C-0.170726 9.9016 2.17966 7.81542 4.59251 8.00264C5.8575 8.00264 10.0976 8.00264 12.362 8.00264C15.4308 7.70844 17.7734 9.91943 17.4142 13.539C17.3751 15.4113 17.5235 18.1393 17.3908 19.6193C17.3283 19.8957 15.2278 19.9135 15.1887 19.5925C15.095 18.3444 15.1731 15.8481 15.1419 13.967C15.22 12.5584 15.1029 11.0071 13.8144 10.5078H13.7988V10.49Z" fill="var(--fill-0, white)" id="Vector"/>
<path d="M12.3489 16.4293C12.4348 16.8011 12.4036 17.8368 12.3879 18.2086C12.3723 18.5362 12.2163 18.5893 11.9744 18.5804C10.804 18.5804 7.17579 18.5981 5.95858 18.5804C5.77131 18.5716 5.69329 18.5096 5.66207 18.2529C5.62306 17.8545 5.63086 17.049 5.65427 16.6684C5.66988 16.3674 5.77131 16.2523 6.01319 16.2612C6.80126 16.2612 9.25129 16.2612 10.843 16.2612C11.4204 16.2612 11.8886 16.2612 12.1227 16.2612C12.2241 16.2612 12.3099 16.3054 12.3489 16.4205V16.4293Z" fill="var(--fill-0, white)" id="Vector_2"/>
</g>
<path d="M28.6291 8.15583C28.7463 8.19149 28.7697 8.28956 28.7697 8.40546C28.7697 8.77098 28.7697 9.59119 28.7697 10.6254C28.7697 12.7918 28.7697 18.0964 28.7697 19.505C28.7931 19.7992 28.551 19.817 28.3168 19.826C28.0279 19.8349 27.5515 19.826 27.1845 19.826C26.9503 19.826 26.7785 19.826 26.6692 19.7903C26.4349 19.7368 26.4818 19.5852 26.474 19.2376C26.5364 17.08 26.349 9.89431 26.5364 8.19149C26.5911 8.12017 26.8722 8.10234 27.044 8.10234C27.5516 8.11125 28.145 8.05776 28.6135 8.14691H28.6213L28.6291 8.15583Z" fill="var(--fill-0, white)" id="Vector_3"/>
<path d="M39.8675 19.6704C39.4381 19.9201 38.8212 19.7774 38.3527 19.8042C37.9154 19.8042 37.7436 19.6437 37.7748 19.1177C37.7748 18.2529 37.7748 16.4431 37.7748 15.2395C37.7748 14.6779 37.7748 14.2767 37.7827 14.0895C37.7983 13.8844 37.8607 13.8666 38.0091 13.8577C39.4537 13.8487 48.3555 13.8577 50.0812 13.8398C50.5184 13.8131 50.9479 13.403 51.0885 12.8948C51.4242 11.8071 50.9791 10.2737 49.8157 10.4164C47.8011 10.4164 40.9139 10.4164 38.2434 10.4164C37.9779 10.4164 37.8607 10.452 37.8217 10.1578C37.7983 9.99733 37.7983 9.82794 37.7983 9.65855C37.7983 9.28411 37.7983 8.8116 37.8139 8.4639C37.8451 8.19644 37.8764 8.12512 38.056 8.1162C39.5083 8.1162 46.6688 8.13403 49.9328 8.15186C50.5731 8.12512 51.1041 8.19644 51.6975 8.51739C53.556 9.54265 53.9542 12.7878 52.8064 14.5976C52.533 15.0345 52.166 15.3911 51.7444 15.6318C51.2993 15.9349 50.8074 15.9082 50.5887 16.2291C50.5575 16.4342 50.7839 16.6303 50.9011 16.7908C51.5492 17.5397 52.7595 18.9126 53.1968 19.4386C53.6809 19.9557 52.7283 19.7863 52.4159 19.822C51.9943 19.822 51.5414 19.8398 51.1275 19.822C50.6356 19.8309 50.4169 19.5724 50.0733 19.1534C49.5346 18.5114 48.9489 17.8161 48.4101 17.1742C48.0119 16.773 47.8323 16.3094 47.3794 16.1846C46.2081 16.1489 41.8822 16.1756 40.5 16.1578C40.2892 16.1578 40.1096 16.14 40.0628 16.3896C39.9769 17.1831 40.0628 18.3242 40.0237 19.1088C40.0081 19.3049 40.0081 19.5278 39.8675 19.6615H39.8597L39.8675 19.6704Z" fill="var(--fill-0, white)" id="Vector_4"/>
<path d="M62.6155 8.12413C63.0918 8.03497 63.7087 8.09738 64.2163 8.08847C64.3803 8.08847 64.6614 8.1063 64.716 8.18654C64.8878 9.9161 64.716 17.1286 64.7629 19.2593C64.7629 19.5892 64.7941 19.7408 64.5677 19.7943C64.4583 19.821 64.2787 19.8299 64.0445 19.8299C63.6775 19.8299 63.1934 19.8299 62.9044 19.8299C62.6702 19.8121 62.4281 19.8121 62.4515 19.509C62.4515 18.0825 62.4515 12.7868 62.4593 10.6115C62.4593 9.56841 62.4593 8.75711 62.4593 8.39159C62.4593 8.27569 62.4828 8.1687 62.5999 8.14196H62.6077L62.6155 8.12413Z" fill="var(--fill-0, white)" id="Vector_5"/>
<g id="Group 2">
<path d="M86.9097 10.502C84.4813 10.3058 79.4682 10.502 77.7503 10.4307C76.4541 10.3415 75.9465 11.8036 76.0792 13.1409C76.0714 15.0399 76.0949 17.6877 76.0792 19.444C76.0949 19.8006 75.7591 19.8096 75.5248 19.8185C75.0954 19.8185 74.5488 19.8452 74.1193 19.8006C73.5805 19.8452 73.8928 18.3742 73.8148 17.5807C73.9085 14.9596 73.6273 13.0518 73.9944 11.0102C74.3692 9.37865 75.7435 8.07702 77.2271 8.10376C78.8044 8.10376 83.6223 8.10376 86.2929 8.10376C88.3231 7.8363 89.9941 9.61936 90.205 11.8928C90.3455 14.1573 90.2128 17.4203 90.2284 19.444C90.2284 19.765 89.9395 19.7917 89.713 19.8006C89.3304 19.7471 88.2216 20.0057 88.042 19.5778C87.9795 18.3118 88.0342 14.0235 88.0186 12.499C88.0966 11.6521 87.6515 10.7516 86.9332 10.4931H86.9175L86.9097 10.502Z" fill="var(--fill-0, white)" id="Vector_6"/>
<path d="M96.1868 10.4661C95.9057 10.8852 95.4372 12.3205 95.1873 12.2135C95.0155 11.9996 95.0311 11.5271 94.9609 11.215C94.7266 9.46762 93.8286 8.70091 92.4075 8.19274C92.142 8.05901 92.1264 7.95202 92.4387 7.81829C93.977 7.3547 95.1717 6.63256 95.9447 4.87624C96.4835 3.67268 96.5772 3.73508 96.749 4.90299C96.9989 6.44534 97.6158 7.18531 98.9745 7.62216C99.1385 7.71131 100.185 7.86287 99.6616 8.13924C98.9354 8.48694 97.9359 8.66525 97.3034 9.1645C96.874 9.49437 96.4757 9.94014 96.2024 10.4483L96.1868 10.4751V10.4661Z" fill="var(--fill-0, white)" id="Vector_7"/>
</g>
</g>
<defs>
<clipPath id="clip0_0_2948">
<rect fill="white" height="23.8299" width="99.8068"/>
</clipPath>
</defs>
</svg>